# xmcd CD database file
#
# Track frame offsets:
#	150
#	11503
#	24965
#	39216
#	53057
#	64822
#	78948
#	90706
#	105207
#	119557
#	132381
#	144682
#	154595
#	168793
#	183288
#	195421
#
# Disc length: 2776 seconds
#
# Revision: 0
# Processed by: cddbd v1.5.2PL0 Copyright (c) Steve Scherf et al.
# Submitted via: CDex 1.70beta2
#
DISCID=be0ad610
DTITLE=Judy Garland - Judy Garland
DYEAR=1900
DGENRE=Jazz
TTITLE0=For Me and My Gal
TTITLE1=I'm Always Chasing Rainbows
TTITLE2=The Birthday Of A King
TTITLE3=The Boy Next Door
TTITLE4=Friendship
TTITLE5=Bidin' My Time
TTITLE6=When You Wore A Tulip
TTITLE7=On The Atchinson Topeka and The Santa Fe
TTITLE8=(Dear Mr Gable) You Made Me Love You
TTITLE9=The Trolley Song
TTITLE10=Have Yourself A Merry Little Christmas
TTITLE11=Meet Me In St Louis
TTITLE12=But Not For Me
TTITLE13=Embraceable You
TTITLE14=Poor You
TTITLE15=Over The Rainbow
EXTD=
EXTT0=
EXTT1=
EXTT2=
EXTT3=
EXTT4=
EXTT5=
EXTT6=
EXTT7=
EXTT8=
EXTT9=
EXTT10=
EXTT11=
EXTT12=
EXTT13=
EXTT14=
EXTT15=
PLAYORDER=
